<svg xmlns="http://www.w3.org/2000/svg" width="196.20000000000002" height="133" viewBox="0 0 196.20000000000002 133">
<rect width="100%" height="100%" fill="white"/>
<rect x="16.2" y="0" width="1.8" height="123" fill="black" shape-rendering="crispEdges"/>
<rect x="19.8" y="0" width="1.8" height="123" fill="black" shape-rendering="crispEdges"/>
<rect x="23.4" y="0" width="1.8" height="110" fill="black" shape-rendering="crispEdges"/>
<rect x="27.0" y="0" width="1.8" height="110" fill="black" shape-rendering="crispEdges"/>
<rect x="28.799999999999997" y="0" width="1.8" height="110" fill="black" shape-rendering="crispEdges"/>
<rect x="30.6" y="0" width="1.8" height="110" fill="black" shape-rendering="crispEdges"/>
<rect x="32.4" y="0" width="1.8" height="110" fill="black" shape-rendering="crispEdges"/>
<rect x="37.8" y="0" width="1.8" height="110" fill="black" shape-rendering="crispEdges"/>
<rect x="41.4" y="0" width="1.8" height="110" fill="black" shape-rendering="crispEdges"/>
<rect x="43.2" y="0" width="1.8" height="110" fill="black" shape-rendering="crispEdges"/>
<rect x="45.0" y="0" width="1.8" height="110" fill="black" shape-rendering="crispEdges"/>
<rect x="52.2" y="0" width="1.8" height="110" fill="black" shape-rendering="crispEdges"/>
<rect x="55.8" y="0" width="1.8" height="110" fill="black" shape-rendering="crispEdges"/>
<rect x="57.599999999999994" y="0" width="1.8" height="110" fill="black" shape-rendering="crispEdges"/>
<rect x="63.0" y="0" width="1.8" height="110" fill="black" shape-rendering="crispEdges"/>
<rect x="64.8" y="0" width="1.8" height="110" fill="black" shape-rendering="crispEdges"/>
<rect x="68.4" y="0" width="1.8" height="110" fill="black" shape-rendering="crispEdges"/>
<rect x="70.2" y="0" width="1.8" height="110" fill="black" shape-rendering="crispEdges"/>
<rect x="75.6" y="0" width="1.8" height="110" fill="black" shape-rendering="crispEdges"/>
<rect x="77.4" y="0" width="1.8" height="110" fill="black" shape-rendering="crispEdges"/>
<rect x="79.2" y="0" width="1.8" height="110" fill="black" shape-rendering="crispEdges"/>
<rect x="82.80000000000001" y="0" width="1.8" height="110" fill="black" shape-rendering="crispEdges"/>
<rect x="86.4" y="0" width="1.8" height="110" fill="black" shape-rendering="crispEdges"/>
<rect x="88.2" y="0" width="1.8" height="110" fill="black" shape-rendering="crispEdges"/>
<rect x="90.0" y="0" width="1.8" height="110" fill="black" shape-rendering="crispEdges"/>
<rect x="91.80000000000001" y="0" width="1.8" height="110" fill="black" shape-rendering="crispEdges"/>
<rect x="95.4" y="0" width="1.8" height="110" fill="black" shape-rendering="crispEdges"/>
<rect x="99.0" y="0" width="1.8" height="123" fill="black" shape-rendering="crispEdges"/>
<rect x="102.60000000000001" y="0" width="1.8" height="123" fill="black" shape-rendering="crispEdges"/>
<rect x="106.2" y="0" width="1.8" height="110" fill="black" shape-rendering="crispEdges"/>
<rect x="109.80000000000001" y="0" width="1.8" height="110" fill="black" shape-rendering="crispEdges"/>
<rect x="118.80000000000001" y="0" width="1.8" height="110" fill="black" shape-rendering="crispEdges"/>
<rect x="120.60000000000001" y="0" width="1.8" height="110" fill="black" shape-rendering="crispEdges"/>
<rect x="122.4" y="0" width="1.8" height="110" fill="black" shape-rendering="crispEdges"/>
<rect x="126.0" y="0" width="1.8" height="110" fill="black" shape-rendering="crispEdges"/>
<rect x="131.4" y="0" width="1.8" height="110" fill="black" shape-rendering="crispEdges"/>
<rect x="135.0" y="0" width="1.8" height="110" fill="black" shape-rendering="crispEdges"/>
<rect x="136.8" y="0" width="1.8" height="110" fill="black" shape-rendering="crispEdges"/>
<rect x="138.6" y="0" width="1.8" height="110" fill="black" shape-rendering="crispEdges"/>
<rect x="144.0" y="0" width="1.8" height="110" fill="black" shape-rendering="crispEdges"/>
<rect x="145.79999999999998" y="0" width="1.8" height="110" fill="black" shape-rendering="crispEdges"/>
<rect x="151.2" y="0" width="1.8" height="110" fill="black" shape-rendering="crispEdges"/>
<rect x="153.0" y="0" width="1.8" height="110" fill="black" shape-rendering="crispEdges"/>
<rect x="156.6" y="0" width="1.8" height="110" fill="black" shape-rendering="crispEdges"/>
<rect x="158.4" y="0" width="1.8" height="110" fill="black" shape-rendering="crispEdges"/>
<rect x="163.79999999999998" y="0" width="1.8" height="110" fill="black" shape-rendering="crispEdges"/>
<rect x="165.6" y="0" width="1.8" height="110" fill="black" shape-rendering="crispEdges"/>
<rect x="169.2" y="0" width="1.8" height="110" fill="black" shape-rendering="crispEdges"/>
<rect x="174.6" y="0" width="1.8" height="110" fill="black" shape-rendering="crispEdges"/>
<rect x="181.79999999999998" y="0" width="1.8" height="123" fill="black" shape-rendering="crispEdges"/>
<rect x="185.4" y="0" width="1.8" height="123" fill="black" shape-rendering="crispEdges"/>
<text x="11.2" y="125" font-family="Consolas, monospace" font-size="20" text-anchor="end">8</text>
<text x="27.900000000000002" y="125" font-family="Consolas, monospace" font-size="20" text-anchor="middle">6</text>
<text x="40.5" y="125" font-family="Consolas, monospace" font-size="20" text-anchor="middle">9</text>
<text x="53.1" y="125" font-family="Consolas, monospace" font-size="20" text-anchor="middle">9</text>
<text x="65.7" y="125" font-family="Consolas, monospace" font-size="20" text-anchor="middle">2</text>
<text x="78.3" y="125" font-family="Consolas, monospace" font-size="20" text-anchor="middle">4</text>
<text x="90.89999999999999" y="125" font-family="Consolas, monospace" font-size="20" text-anchor="middle">3</text>
<text x="112.5" y="125" font-family="Consolas, monospace" font-size="20" text-anchor="middle">6</text>
<text x="125.1" y="125" font-family="Consolas, monospace" font-size="20" text-anchor="middle">9</text>
<text x="137.70000000000002" y="125" font-family="Consolas, monospace" font-size="20" text-anchor="middle">4</text>
<text x="150.3" y="125" font-family="Consolas, monospace" font-size="20" text-anchor="middle">1</text>
<text x="162.9" y="125" font-family="Consolas, monospace" font-size="20" text-anchor="middle">1</text>
<text x="175.5" y="125" font-family="Consolas, monospace" font-size="20" text-anchor="middle">8</text>
<text x="192.2" y="125" font-family="Consolas, monospace" font-size="20" text-anchor="start">&gt;</text>
</svg>